# xmcd CD database file
#
# Track frame offsets:
#	150
#	15123
#	35634
#	50178
#	70051
#	87594
#	101978
#	118083
#	136856
#	157617
#	172900
#	191328
#
# Disc length: 2782 seconds
#
# Revision: 0
# Processed by: cddbd v1.5PL3 Copyright (c) Steve Scherf et al.
# Submitted via: CD2WAV32(EN) R3.19
#
DISCID=960adc0c
DTITLE=ROAD OF MAJOR - ROAD OF MAJOR
DYEAR=1900
DGENRE=
TTITLE0=??????
TTITLE1=??
TTITLE2=?????
TTITLE3=??
TTITLE4=????
TTITLE5=F.L.D
TTITLE6=????
TTITLE7=??????
TTITLE8=row,row,row
TTITLE9=????
TTITLE10=????????
TTITLE11=??
EXTD=
EXTT0=
EXTT1=
EXTT2=
EXTT3=
EXTT4=
EXTT5=
EXTT6=
EXTT7=
EXTT8=
EXTT9=
EXTT10=
EXTT11=
PLAYORDER=
